HIERARCHY
ROOT Hips
{
    OFFSET 0.000000 0.000000 0.000000
    CHANNELS 6 Xposition Yposition Zposition Zrotation Xrotation Yrotation
    JOINT Spine
    {
        OFFSET -0.000000 14.517291 0.000000
        CHANNELS 3 Zrotation Xrotation Yrotation
        JOINT Spine1
        {
            OFFSET -0.000000 37.558300 0.000000
            CHANNELS 3 Zrotation Xrotation Yrotation
            JOINT Neck
            {
                OFFSET -0.000000 37.404057 3.400369
                CHANNELS 3 Zrotation Xrotation Yrotation
                JOINT Head
                {
                    OFFSET -0.000000 24.785618 -3.540803
                    CHANNELS 3 Zrotation Xrotation Yrotation
                    End Site
                    {
                        OFFSET -0.000000 35.408028 0.000000
                    }
                }
            }
            JOINT LeftShoulder
            {
                OFFSET 6.992933 33.973492 -0.192664
                CHANNELS 3 Zrotation Xrotation Yrotation
                JOINT LeftArm
                {
                    OFFSET 21.527611 0.000000 0.000000
                    CHANNELS 3 Zrotation Xrotation Yrotation
                    JOINT LeftForeArm
                    {
                        OFFSET 56.353916 0.000000 0.000000
                        CHANNELS 3 Zrotation Xrotation Yrotation
                        JOINT LeftHand
                        {
                            OFFSET 47.774071 0.000000 0.000000
                            CHANNELS 3 Zrotation Xrotation Yrotation
                            End Site
                            {
                                OFFSET 26.556021 0.000000 0.000000
                            }
                        }
                    }
                }
            }
            JOINT RightShoulder
            {
                OFFSET -7.065357 33.973492 -0.192664
                CHANNELS 3 Zrotation Xrotation Yrotation
                JOINT RightArm
                {
                    OFFSET -21.527611 0.000000 0.000000
                    CHANNELS 3 Zrotation Xrotation Yrotation
                    JOINT RightForeArm
                    {
                        OFFSET -56.353916 0.000000 0.000000
                        CHANNELS 3 Zrotation Xrotation Yrotation
                        JOINT RightHand
                        {
                            OFFSET -47.774071 0.000000 0.000000
                            CHANNELS 3 Zrotation Xrotation Yrotation
                            End Site
                            {
                                OFFSET -26.556021 0.000000 0.000000
                            }
                        }
                    }
                }
            }
        }
    }
    JOINT LeftUpLeg
    {
        OFFSET 17.704014 0.000000 0.000000
        CHANNELS 3 Zrotation Xrotation Yrotation
        JOINT LeftLeg
        {
            OFFSET -0.000000 -81.181816 0.000000
            CHANNELS 3 Zrotation Xrotation Yrotation
            JOINT LeftFoot
            {
                OFFSET -0.000000 -62.821102 0.000000
                CHANNELS 3 Zrotation Xrotation Yrotation
                JOINT LeftToeBase
                {
                    OFFSET -0.000000 -11.507608 26.556021
                    CHANNELS 3 Zrotation Xrotation Yrotation
                    End Site
                    {
                        OFFSET -0.000000 0.000000 7.081605
                    }
                }
            }
        }
    }
    JOINT RightUpLeg
    {
        OFFSET -17.704014 0.000000 0.000000
        CHANNELS 3 Zrotation Xrotation Yrotation
        JOINT RightLeg
        {
            OFFSET -0.000000 -81.181816 0.000000
            CHANNELS 3 Zrotation Xrotation Yrotation
            JOINT RightFoot
            {
                OFFSET -0.000000 -62.821102 0.000000
                CHANNELS 3 Zrotation Xrotation Yrotation
                JOINT RightToeBase
                {
                    OFFSET -0.000000 -11.507608 26.556021
                    CHANNELS 3 Zrotation Xrotation Yrotation
                    End Site
                    {
                        OFFSET -0.000000 0.000000 7.081605
                    }
                }
            }
        }
    }
}
MOTION
Frames:    5
Frame Time:    0.008333
-15.891348    159.864899    -70.622108    -5.418204    3.317794    40.984016    1.547187    -0.035835    -1.961700    -7.871663    1.933588    -0.520075    6.627999    0.878076    -16.545015    10.593003    -6.553323    -16.101580    7.606659    7.147955    -18.665209    -34.331745    21.813259    -49.032784    -6.661211    -10.928250    -115.808174    0.517209    -21.185398    -6.228617    -16.471113    -6.983052    -5.943016    17.313623    -26.891991    50.450314    -11.889944    -15.578403    45.938099    5.358097    -9.127273    32.164959    24.172960    -7.664951    -6.587741    -12.498791    33.556553    -13.320249    -1.999997    -15.881948    41.912849    0.000000    0.000000    0.000000    -5.579683    -27.930536    -6.481047    12.149259    29.320410    -16.852449    -1.072638    -2.483783    -15.246549    0.000000    0.000000    0.000000    
-15.619328    159.684311    -71.187828    -5.434119    3.267493    41.171486    1.521619    -0.103861    -2.082559    -7.784429    1.944951    -0.561365    6.666730    0.862856    -16.550058    10.515876    -6.530979    -16.130207    7.627030    7.146837    -18.706758    -34.288723    21.823786    -49.046345    -6.565382    -11.093525    -115.846947    0.169809    -21.188251    -6.262783    -16.461477    -7.015096    -5.977817    17.184517    -26.826014    50.377758    -11.853059    -15.579940    45.889431    5.285433    -9.173365    32.120628    24.386145    -7.326734    -6.155216    -12.203763    33.063282    -13.812105    -2.098813    -15.537186    41.833946    0.000000    0.000000    0.000000    -5.937338    -28.093870    -6.726906    12.289212    29.597067    -16.887915    -0.972269    -2.532520    -15.319729    0.000000    0.000000    0.000000    
-15.355976    159.504471    -71.779442    -5.435880    3.222312    41.356194    1.503970    -0.123693    -2.193263    -7.752254    1.898016    -0.602072    6.684595    0.841220    -16.566170    10.489726    -6.456735    -16.162621    7.649212    7.145254    -18.760855    -34.210651    21.825056    -49.052387    -6.678758    -11.001856    -115.831467    0.483723    -21.284727    -6.251286    -16.459606    -7.037519    -6.008020    17.144449    -26.767431    50.275620    -11.822512    -15.539791    45.894199    5.240014    -9.156577    32.140175    24.558582    -7.067229    -5.604820    -11.955292    32.614971    -14.083908    -2.440562    -15.094392    41.670929    0.000000    0.000000    0.000000    -6.304516    -28.262936    -7.001668    12.395797    29.873816    -16.938292    -0.874271    -2.549619    -15.355933    0.000000    0.000000    0.000000    
-15.086752    159.314224    -72.378410    -5.453794    3.147005    41.515747    1.514024    -0.149318    -2.300143    -7.733127    1.867758    -0.640306    6.670391    0.836286    -16.577486    10.559898    -6.390397    -16.165222    7.695170    7.121587    -18.789762    -34.208260    21.837933    -49.009415    -6.520587    -11.155460    -115.851257    0.115833    -21.177866    -6.337429    -16.416630    -7.014033    -6.002820    17.151140    -26.880377    50.245907    -11.658974    -15.405592    45.855957    5.246737    -9.087772    32.203697    24.747330    -6.799135    -5.087637    -11.897433    32.232357    -14.001439    -2.545514    -14.597114    41.447800    0.000000    0.000000    0.000000    -6.631755    -28.414810    -7.220175    12.521705    30.128689    -16.973219    -0.776137    -2.559521    -15.435244    0.000000    0.000000    0.000000    
-14.818769    159.126892    -73.013512    -5.457711    3.082345    41.693249    1.477131    -0.139575    -2.403485    -7.678016    1.814108    -0.679131    6.744124    0.859175    -16.585058    10.527826    -6.420341    -16.185728    7.745533    7.125803    -18.832293    -34.190605    21.771427    -49.028824    -6.556038    -11.097514    -115.836418    0.103058    -21.172771    -6.359788    -16.370073    -7.031081    -6.057849    17.056101    -26.790174    50.164803    -11.649958    -15.446426    45.817238    5.302402    -9.125464    32.137856    24.866617    -6.572104    -4.589068    -11.667477    31.921547    -14.259277    -2.711977    -14.039039    41.269089    0.000000    0.000000    0.000000    -6.993402    -28.561857    -7.441790    12.649346    30.361128    -17.061012    -0.671521    -2.561563    -15.479196    0.000000    0.000000    0.000000    
